<svg width="56" height="56" viewBox="0 0 56 56" fill="none" xmlns="http://www.w3.org/2000/svg">
<circle cx="28" cy="28" r="28" fill="#F7F7F7"/>
<path fill-rule="evenodd" clip-rule="evenodd" d="M41.4 40H35.565V31.5628C35.565 29.3548 34.653 27.847 32.6454 27.847C31.1106 27.847 30.2568 28.8646 29.8596 29.845C29.7102 30.1966 29.7336 30.6868 29.7336 31.177V40H23.9532C23.9532 40 24.0276 25.0546 23.9532 23.6962H29.7336V26.2552C30.0756 25.1362 31.9224 23.5396 34.8696 23.5396C38.5266 23.5396 41.4 25.8844 41.4 30.9346V40ZM18.108 21.6568H18.0702C16.2078 21.6568 15 20.4106 15 18.8308C15 17.2204 16.2432 16 18.1434 16C20.0418 16 21.2094 17.2174 21.246 18.826C21.246 20.4058 20.0418 21.6568 18.108 21.6568ZM15.666 23.6962H20.8116V40H15.666V23.6962Z" fill="#007EBB"/>
</svg>
