<svg width="20" height="18" viewBox="0 0 20 18" fill="none" xmlns="http://www.w3.org/2000/svg">
<path d="M15.5691 1H4.38122C2.54144 1 1 2.5 1 4.4V16.4C1 16.65 1.14917 16.85 1.39779 16.95C1.49724 17 1.54696 17 1.64641 17C1.79558 17 1.94475 16.95 2.09392 16.8L4.67956 14.35H15.6188C17.4586 14.35 19 12.85 19 10.95V4.35C18.9503 2.5 17.4586 1 15.5691 1ZM17.7072 10.95C17.7072 12.15 16.7624 13.1 15.5691 13.1H4.38122C4.23204 13.1 4.08287 13.15 3.9337 13.25L2.24309 14.9V4.35C2.24309 3.15 3.18785 2.2 4.38122 2.2H15.5691C16.7624 2.2 17.7072 3.15 17.7072 4.35V10.95Z" fill="#51668A" stroke="#51668A" stroke-width="0.6"/>
</svg>
