<svg width="13" height="13" viewBox="0 0 13 13" fill="none" xmlns="http://www.w3.org/2000/svg">
<path d="M5.21506 11.3811L4.30881 12.2873L3.26506 11.2436L4.16506 10.3748C4.30525 10.2374 4.49374 10.1604 4.69006 10.1604C4.88637 10.1604 5.07486 10.2374 5.21506 10.3748C5.34386 10.5107 5.41566 10.6907 5.41566 10.8779C5.41566 11.0651 5.34386 11.2452 5.21506 11.3811ZM6.79006 9.51231C6.64572 9.51127 6.50486 9.4679 6.38494 9.38757C6.26502 9.30725 6.1713 9.19349 6.11541 9.06041C6.05951 8.92734 6.0439 8.78078 6.0705 8.63891C6.0971 8.49705 6.16475 8.3661 6.26506 8.26231L8.36506 6.17481C8.43355 6.10621 8.5149 6.05179 8.60445 6.01466C8.694 5.97753 8.78999 5.95842 8.88693 5.95842C8.98387 5.95842 9.07986 5.97753 9.16941 6.01466C9.25896 6.05179 9.34031 6.10621 9.40881 6.17481C9.47721 6.24278 9.5315 6.3236 9.56855 6.41263C9.6056 6.50166 9.62467 6.59713 9.62467 6.69356C9.62467 6.78999 9.6056 6.88547 9.56855 6.9745C9.5315 7.06353 9.47721 7.14435 9.40881 7.21231L7.30881 9.29356C7.17162 9.43221 6.9851 9.51086 6.79006 9.51231V9.51231ZM12.3026 4.33106L11.5026 5.11856C11.3621 5.24206 11.18 5.30757 10.993 5.30185C10.8061 5.29613 10.6283 5.2196 10.4957 5.08775C10.363 4.9559 10.2854 4.77858 10.2786 4.59168C10.2717 4.40478 10.3362 4.22226 10.4588 4.08106L11.2588 3.28731L12.3026 4.33106ZM2.97131 6.83731C2.80734 6.83662 2.65022 6.77153 2.53381 6.65606L0.402557 4.53106C0.284867 4.41337 0.21875 4.25375 0.21875 4.08731C0.21875 3.92087 0.284867 3.76125 0.402557 3.64356C0.520247 3.52587 0.679869 3.45975 0.846307 3.45975C1.01275 3.45975 1.17237 3.52587 1.29006 3.64356L3.41506 5.77481C3.53146 5.89191 3.5968 6.05032 3.5968 6.21544C3.5968 6.38055 3.53146 6.53896 3.41506 6.65606C3.35666 6.71399 3.2874 6.75982 3.21125 6.79092C3.1351 6.82202 3.05356 6.83779 2.97131 6.83731ZM6.12131 6.56231C6.03905 6.56279 5.95751 6.54702 5.88137 6.51592C5.80522 6.48482 5.73596 6.43899 5.67756 6.38106L2.11506 2.81856C2.05678 2.76029 2.01056 2.69111 1.97902 2.61497C1.94748 2.53883 1.93125 2.45722 1.93125 2.37481C1.93125 2.2924 1.94748 2.2108 1.97902 2.13466C2.01056 2.05852 2.05678 1.98934 2.11506 1.93106C2.17333 1.87279 2.24251 1.82656 2.31865 1.79502C2.39479 1.76349 2.4764 1.74726 2.55881 1.74726C2.64122 1.74726 2.72282 1.76349 2.79896 1.79502C2.8751 1.82656 2.94428 1.87279 3.00256 1.93106L6.56506 5.49356C6.62364 5.55166 6.67013 5.62079 6.70186 5.69695C6.73359 5.77311 6.74993 5.8548 6.74993 5.93731C6.74993 6.01982 6.73359 6.10151 6.70186 6.17767C6.67013 6.25383 6.62364 6.32296 6.56506 6.38106C6.50666 6.43899 6.4374 6.48482 6.36125 6.51592C6.2851 6.54702 6.20356 6.56279 6.12131 6.56231V6.56231ZM7.61506 5.06856C7.5328 5.06904 7.45126 5.05327 7.37511 5.02217C7.29897 4.99107 7.22971 4.94524 7.17131 4.88731L3.60881 1.32481C3.54338 1.26878 3.49024 1.19983 3.45273 1.12229C3.41521 1.04475 3.39413 0.960295 3.39081 0.874221C3.38748 0.788146 3.40199 0.702314 3.43341 0.622111C3.46483 0.541907 3.51249 0.469065 3.5734 0.408156C3.63431 0.347247 3.70715 0.299586 3.78736 0.268164C3.86756 0.236742 3.95339 0.222239 4.03947 0.225563C4.12554 0.228888 4.21 0.249969 4.28754 0.287484C4.36508 0.324999 4.43403 0.378137 4.49006 0.443563L8.05256 4.00606C8.16896 4.12316 8.2343 4.28157 8.2343 4.44669C8.2343 4.6118 8.16896 4.77021 8.05256 4.88731C7.93614 5.00278 7.77902 5.06787 7.61506 5.06856Z" fill="#003F5A"/>
</svg>
