<svg width="7" height="7" viewBox="0 0 7 7" fill="none" xmlns="http://www.w3.org/2000/svg">
<path d="M0.757184 7C0.556037 6.99819 0.36347 6.91829 0.220172 6.77717C0.0790892 6.6341 0 6.44127 0 6.24037C0 6.03947 0.0790892 5.84665 0.220172 5.70357L5.72202 0.203875C5.86608 0.069695 6.05661 -0.00335387 6.25348 0.000118347C6.45035 0.00359056 6.63819 0.0833127 6.77742 0.222489C6.91665 0.361666 6.99641 0.549431 6.99988 0.746226C7.00336 0.943021 6.93028 1.13348 6.79604 1.27748L1.2942 6.77717C1.22387 6.84796 1.14019 6.9041 1.04801 6.94234C0.955837 6.98059 0.856987 7.00019 0.757184 7Z" fill="#51668A"/>
</svg>
