<svg width="56" height="56" viewBox="0 0 56 56" fill="none" xmlns="http://www.w3.org/2000/svg">
<circle cx="28" cy="28" r="28" fill="#F7F7F7"/>
<path d="M42 28.0856C42 20.3063 35.732 14 28 14C20.268 14 14 20.3063 14 28.0856C14 35.1161 19.1196 40.9434 25.8125 42V32.1572H22.2578V28.0856H25.8125V24.9824C25.8125 21.4522 27.9026 19.5022 31.1005 19.5022C32.6322 19.5022 34.2344 19.7773 34.2344 19.7773V23.2437H32.469C30.7299 23.2437 30.1875 24.3294 30.1875 25.4434V28.0856H34.0703L33.4496 32.1572H30.1875V42C36.8804 40.9434 42 35.1161 42 28.0856Z" fill="#1877F2"/>
<path d="M33.2137 31.7233L33.8356 27.9515H29.9452V25.5038C29.9452 24.4718 30.4886 23.466 32.2312 23.466H34V20.2549C34 20.2549 32.3947 20 30.86 20C27.6559 20 25.5616 21.8064 25.5616 25.0767V27.9515H22V31.7233H25.5616V40.8414C27.014 41.0529 28.4929 41.0529 29.9452 40.8414V31.7233H33.2137Z" fill="white"/>
</svg>
