<svg width="16" height="16" viewBox="0 0 16 16" fill="none" xmlns="http://www.w3.org/2000/svg">
<path d="M13.9991 3.53823L13.9739 3.60574H14.046H14.3898C14.616 3.62756 14.8357 3.69389 15.0363 3.80095C15.2375 3.90837 15.4155 4.05467 15.5599 4.23138C15.7043 4.40809 15.8123 4.61172 15.8777 4.83048C15.943 5.04924 15.9644 5.2788 15.9406 5.50589L15.9403 5.50586V5.5111V8.71079H15.9401L15.9405 8.71558C15.9809 9.13435 15.8733 9.55402 15.6366 9.90161C15.3999 10.2492 15.0489 10.5027 14.6448 10.6181L14.6086 10.6284V10.6662V14.5135C14.5904 14.9094 14.4171 15.2822 14.1261 15.551C13.8349 15.82 13.4494 15.963 13.0534 15.949L13.0534 15.949H13.0516H2.94837V15.9489L2.94653 15.949C2.55618 15.9633 2.17557 15.825 1.88529 15.5633C1.59543 15.3019 1.41835 14.9381 1.39143 14.5485V10.6662V10.6284L1.35516 10.6181C0.951065 10.5027 0.600134 10.2492 0.363406 9.90161C0.126677 9.55402 0.0191329 9.13435 0.0594871 8.71558L0.0597177 8.71561V8.71079L0.0597177 5.5111H0.0599922L0.0594446 5.50589C0.0356155 5.2788 0.0569866 5.04924 0.122322 4.83048C0.187656 4.61172 0.295659 4.40809 0.440081 4.23138C0.584503 4.05467 0.76248 3.90837 0.96372 3.80095C1.16427 3.69389 1.38395 3.62756 1.61016 3.60574H1.95402H2.0261L2.00085 3.53823C1.89658 3.25941 1.84061 2.96482 1.83535 2.66715C1.8539 1.95777 2.15195 1.28452 2.66447 0.794309C3.17723 0.30386 3.86301 0.0364737 4.57202 0.0505272C5.2728 0.065686 5.95663 0.269182 6.5519 0.639715C7.14719 1.01025 7.63203 1.53421 7.95564 2.15672L8 2.24206L8.04436 2.15672C8.36797 1.53421 8.85281 1.01025 9.4481 0.639715C10.0434 0.269183 10.7272 0.065687 11.428 0.0505274C12.137 0.0364722 12.8228 0.303858 13.3355 0.794309C13.848 1.28452 14.1461 1.95777 14.1647 2.66714C14.1594 2.96482 14.1034 3.25941 13.9991 3.53823ZM14.2147 8.93855H14.2564L14.2639 8.89747C14.2753 8.83431 14.2756 8.76963 14.2647 8.7064V5.51549C14.2756 5.45226 14.2753 5.38759 14.2639 5.32442L14.2564 5.28334H14.2147H8.88781H8.83781V5.33334V8.88855V8.93855H8.88781H14.2147ZM11.424 1.72822L11.424 1.72816L11.4214 1.72845C10.9158 1.78484 10.4372 1.98564 10.0425 2.30689C9.64778 2.62814 9.35373 3.05626 9.19541 3.54019L9.17397 3.60574H9.24293H11.4255C11.6896 3.62076 11.9491 3.53132 12.148 3.35665C12.3473 3.18166 12.4697 2.9352 12.4889 2.67056L12.4894 2.67059L12.4889 2.66333C12.4697 2.39869 12.3473 2.15222 12.148 1.97723C11.9487 1.80224 11.6887 1.71279 11.424 1.72822ZM3.51109 2.66333L3.51056 2.66329L3.51109 2.67056C3.53027 2.9352 3.65272 3.18166 3.85199 3.35665C4.05089 3.53132 4.31036 3.62076 4.5745 3.60574H6.74819H6.81712L6.79572 3.54022C6.63804 3.05757 6.34536 2.63032 5.95241 2.30919C5.55946 1.98805 5.08273 1.7865 4.57878 1.72847L4.57879 1.72839L4.57597 1.72822C4.31133 1.71279 4.05126 1.80224 3.85199 1.97723C3.65272 2.15222 3.53027 2.39869 3.51109 2.66333ZM1.78534 5.28334H1.74359L1.73614 5.32443C1.72469 5.38759 1.72442 5.45226 1.73534 5.51549V8.7064C1.72442 8.76963 1.72469 8.83431 1.73614 8.89747L1.74359 8.93855H1.78534H7.11219H7.16219V8.88855V5.33334V5.28334H7.11219H1.78534ZM3.11705 10.6162H3.06705V10.6662V14.2214V14.2714H3.11705H7.11219H7.16219V14.2214V10.6662V10.6162H7.11219H3.11705ZM8.83781 14.2214V14.2714H8.88781H12.8829H12.933V14.2214V10.6662V10.6162H12.8829H8.88781H8.83781V10.6662V14.2214Z" fill="#51668A" stroke="white" stroke-width="0.1"/>
</svg>
