<svg width="56" height="56" viewBox="0 0 56 56" fill="none" xmlns="http://www.w3.org/2000/svg">
<circle cx="28" cy="28" r="28" fill="#F7F7F7"/>
<path d="M39.9866 28.2242C39.9866 27.2409 39.9049 26.5234 39.7282 25.7793H28.2383V30.2173H34.9826C34.8467 31.3202 34.1124 32.9811 32.4807 34.0972L32.4578 34.2458L36.0907 36.996L36.3424 37.0205C38.654 34.9344 39.9866 31.8649 39.9866 28.2242Z" fill="#4285F4"/>
<path d="M28.2391 39.9178C31.5433 39.9178 34.3171 38.8548 36.3432 37.0211L32.4815 34.0978C31.4481 34.8021 30.0611 35.2937 28.2391 35.2937C25.0029 35.2937 22.2562 33.2076 21.2771 30.3242L21.1336 30.3361L17.356 33.193L17.3066 33.3271C19.3191 37.2337 23.4527 39.9178 28.2391 39.9178Z" fill="#34A853"/>
<path d="M21.2778 30.3239C21.0194 29.5798 20.8699 28.7825 20.8699 27.9587C20.8699 27.1349 21.0194 26.3376 21.2642 25.5935L21.2573 25.4351L17.4324 22.5323L17.3073 22.5905C16.4779 24.2116 16.002 26.032 16.002 27.9587C16.002 29.8854 16.4779 31.7058 17.3073 33.3269L21.2778 30.3239Z" fill="#FBBC05"/>
<path d="M28.2391 20.624C30.5371 20.624 32.0871 21.594 32.971 22.4046L36.4248 19.1093C34.3036 17.1826 31.5433 16 28.2391 16C23.4527 16 19.3191 18.6841 17.3066 22.5906L21.2635 25.5936C22.2562 22.7102 25.0029 20.624 28.2391 20.624Z" fill="#EB4335"/>
</svg>
