<svg width="22" height="16" viewBox="0 0 22 16" fill="none" xmlns="http://www.w3.org/2000/svg">
<path fill-rule="evenodd" clip-rule="evenodd" d="M7.384 7.98099H7.29835C3.66532 8.00497 0.687851 11.0723 0.500482 14.9386L0.500657 14.9384C0.493461 15.0848 0.54559 15.2278 0.644757 15.3339C0.743923 15.44 0.881354 15.5 1.0251 15.5H13.6638C13.8063 15.4984 13.9422 15.4375 14.0399 15.3316C14.1375 15.2257 14.1886 15.0837 14.1814 14.9384C13.9945 11.072 11.0168 8.00509 7.38351 7.98081L7.384 7.98099ZM11.1545 7.9563C12.1504 8.55168 13.0124 9.35378 13.6846 10.3105C14.3568 11.2674 14.8244 12.3576 15.0568 13.5104H20.9749C21.1186 13.5104 21.2561 13.4505 21.3552 13.3444C21.4544 13.2382 21.5065 13.0953 21.4993 12.9489C21.3245 9.33358 18.5289 6.46862 15.1265 6.46862C13.6718 6.47094 12.2647 6.99781 11.1544 7.95612L11.1545 7.9563ZM7.34154 0.9973C6.50364 0.9973 5.69993 1.3366 5.10735 1.94077C4.51496 2.54495 4.18201 3.36418 4.18201 4.21855C4.18201 5.07287 4.51497 5.89233 5.10753 6.49651C5.69993 7.10069 6.50359 7.43998 7.34154 7.43998C8.17945 7.43998 8.98316 7.1005 9.57555 6.49651C10.1681 5.89233 10.5011 5.07292 10.5011 4.21855C10.5006 3.36437 10.1676 2.54514 9.57524 1.94114C8.98289 1.33714 8.17936 0.997667 7.34159 0.9973H7.34154ZM15.1266 0.5C14.4698 0.5 13.84 0.765931 13.3756 1.23947C12.9112 1.71299 12.6502 2.35524 12.6502 3.02494C12.6502 3.69459 12.9112 4.33688 13.3756 4.81022C13.84 5.28375 14.4698 5.54988 15.1266 5.54988C15.7834 5.54988 16.4133 5.28377 16.8778 4.81022C17.3422 4.33688 17.603 3.69459 17.603 3.02494C17.6027 2.35547 17.3417 1.71336 16.8773 1.24002C16.413 0.766495 15.7834 0.500367 15.1266 0.500046L15.1266 0.5Z" fill="#45B5C0"/>
</svg>
