<svg width="18" height="18" viewBox="0 0 18 18" fill="none" xmlns="http://www.w3.org/2000/svg">
<path d="M14.592 0H2.78397C1.24889 0 0 1.24903 0 2.78397V14.592C0 16.127 1.24903 17.3759 2.78397 17.3759H14.592C16.127 17.3759 17.3759 16.1269 17.3759 14.592V2.78397C17.3759 1.24889 16.127 0 14.592 0ZM8.68008 13.7438C8.11893 13.7438 7.66395 13.2889 7.66395 12.7276C7.66395 12.1665 8.11879 11.7115 8.68008 11.7115C9.24123 11.7115 9.69621 12.1664 9.69621 12.7276C9.69607 13.2889 9.24123 13.7438 8.68008 13.7438ZM10.8627 8.64069C10.2852 9.07059 9.66792 9.4199 9.54713 10.2114V10.7221H7.73482V10.1181C7.81504 8.94953 8.36551 8.4264 8.90256 8.01017C9.4261 7.59432 9.88251 7.28575 9.88251 6.5604C9.88251 5.74128 9.45315 5.3521 8.74183 5.3521C7.77552 5.3521 7.37266 6.14417 7.35888 7.09731L5.38557 7.09745C5.42601 5.17786 6.68787 3.78164 8.64768 3.78164C11.185 3.78164 11.9908 5.33897 11.9908 6.3721C11.9907 7.67454 11.4402 8.19822 10.8627 8.64072L10.8627 8.64069Z" fill="#45B5C0"/>
</svg>
