<svg width="18" height="17" viewBox="0 0 18 17" fill="none" xmlns="http://www.w3.org/2000/svg">
<path d="M10.7972 16.1916L10.7972 16.1916L10.7966 16.1892L9.02808 9.05565L9.01309 8.9952L8.95222 8.98199L0.811266 7.21548C0.81111 7.21544 0.810954 7.21541 0.810799 7.21537C0.618131 7.17148 0.444894 7.06642 0.317021 6.91594C0.18909 6.7654 0.113457 6.57751 0.101435 6.38043C0.0904246 6.18574 0.143015 5.99273 0.251306 5.83046C0.359486 5.66836 0.517406 5.54569 0.701352 5.48088C0.701608 5.48079 0.701864 5.4807 0.702119 5.48061L16.7174 0.147642L16.718 0.147461C16.8761 0.0938231 17.0461 0.0854631 17.2087 0.123329C17.3713 0.161194 17.52 0.24377 17.6381 0.361697C17.7561 0.479624 17.8388 0.628192 17.8767 0.790585C17.9145 0.952742 17.9062 1.12223 17.8527 1.27993C17.8527 1.28016 17.8526 1.28039 17.8525 1.28062L12.514 16.2798L12.514 16.2798L12.5131 16.2824C12.4557 16.4593 12.3444 16.6138 12.1949 16.7246C12.0456 16.8351 11.8655 16.8964 11.6797 16.9H11.63C11.4334 16.8885 11.2459 16.8134 11.0958 16.686C10.9449 16.5581 10.8401 16.3845 10.7972 16.1916ZM4.74819 6.03814L4.40337 6.15376L4.75882 6.23069L9.96431 7.35739L9.9644 7.35741C10.1338 7.39392 10.289 7.47843 10.4116 7.60082C10.5341 7.72322 10.6187 7.87829 10.6552 8.04745L10.6552 8.04766L11.7898 13.2478L11.8674 13.6035L11.9823 13.2581L15.5328 2.59109L15.596 2.40101L15.4061 2.4647L4.74819 6.03814Z" fill="#51668A" stroke="white" stroke-width="0.2"/>
</svg>
