<svg width="4" height="16" viewBox="0 0 4 16" fill="none" xmlns="http://www.w3.org/2000/svg">
<path d="M3.5 1.55552C3.5 0.696472 2.82839 0 2 0C1.17161 0 0.5 0.696472 0.5 1.55552C0.5 2.41458 1.17161 3.11105 2 3.11105C2.82839 3.11105 3.5 2.41458 3.5 1.55552ZM3.5 8C3.5 7.14095 2.82839 6.44448 2 6.44448C1.17161 6.44448 0.5 7.14095 0.5 8C0.5 8.85905 1.17161 9.55552 2 9.55552C2.82839 9.55552 3.5 8.85905 3.5 8ZM3.5 14.4445C3.5 13.5854 2.82839 12.889 2 12.889C1.17161 12.889 0.5 13.5854 0.5 14.4445C0.5 15.3035 1.17161 16 2 16C2.82839 16 3.5 15.3035 3.5 14.4445Z" fill="#51668A"/>
</svg>
